<?xml version="1.0" encoding="UTF-8" standalone="no"?>
<svg
   viewBox="0 0 868.22266 288.36496"
   version="1.1"
   id="svg88"
   sodipodi:docname="garliccloves.svg"
   inkscape:version="1.4.3 (0d15f750, 2025-12-25)"
   width="868.22266"
   height="288.36496"
   xmlns:inkscape="http://www.inkscape.org/namespaces/inkscape"
   xmlns:sodipodi="http://sodipodi.sourceforge.net/DTD/sodipodi-0.dtd"
   xmlns="http://www.w3.org/2000/svg"
   xmlns:svg="http://www.w3.org/2000/svg">
  <sodipodi:namedview
     id="namedview88"
     pagecolor="#ffffff"
     bordercolor="#000000"
     borderopacity="0.25"
     inkscape:showpageshadow="2"
     inkscape:pageopacity="0.0"
     inkscape:pagecheckerboard="0"
     inkscape:deskcolor="#d1d1d1"
     inkscape:zoom="5.5311464"
     inkscape:cx="476.4835"
     inkscape:cy="43.119452"
     inkscape:window-width="2234"
     inkscape:window-height="1186"
     inkscape:window-x="991"
     inkscape:window-y="84"
     inkscape:window-maximized="0"
     inkscape:current-layer="svg88" />
  <defs
     id="defs53">
    <style
       id="style1">
      .name { font-family: Arial, sans-serif; font-size: 12px; font-weight: 600; fill: #94a3b8; text-anchor: middle; }
      .label { font-family: Arial, sans-serif; font-size: 10px; font-weight: 500; fill: #94a3b8; text-anchor: middle; }
      .tunnel-label { font-family: Arial, sans-serif; font-size: 10px; font-weight: 500; fill: #94a3b8; }
      .garlic-label { font-family: Arial, sans-serif; font-size: 12px; font-weight: 600; fill: #dc2626; text-anchor: middle; }
      .clove-label { font-family: Arial, sans-serif; font-size: 10px; font-weight: 500; fill: #dc2626; }
      .arrow { fill: none; stroke: #94a3b8; stroke-width: 2; }
      .garlic-arrow { fill: none; stroke: #dc2626; stroke-width: 2; }
      .hop-circle { fill: none; stroke: #94a3b8; stroke-width: 2; }
      .hop-label { font-family: Arial, sans-serif; font-size: 14px; font-weight: 600; fill: #94a3b8; text-anchor: middle; }
    </style>
    <!-- Client icon -->
    <linearGradient
       id="client-grad"
       x1="7.8000002"
       x2="23.1"
       y1="10.4"
       y2="33.299999"
       gradientUnits="userSpaceOnUse">
      <stop
         offset="0"
         stop-color="#d5e5ff"
         id="stop1" />
      <stop
         offset="1"
         stop-color="#acf"
         id="stop2" />
    </linearGradient>
    <g
       id="client">
      <path
         fill="#999999"
         d="m 35.2,44.9 1,7.6 h -8.4 l 1.1,-7.6 z"
         id="path2" />
      <path
         fill="#808080"
         d="m 60,46 c 0,1.3 -1.1,2.4 -2.4,2.4 H 6.4 A 2.4,2.4 0 0 1 4,46 V 10 C 4,8.7 5.1,7.6 6.4,7.6 h 51.2 c 1.3,0 2.4,1 2.4,2.4 z m -37,6.2 h 18 a 2,2 45 0 1 2,2 v 0.2 a 2,2 135 0 1 -2,2 H 23 a 2,2 45 0 1 -2,-2 v -0.2 a 2,2 135 0 1 2,-2 z"
         id="path3" />
      <circle
         cx="32"
         cy="44.799999"
         r="1.3"
         fill="#cccccc"
         id="circle3" />
      <path
         fill="#87aade"
         d="m 8.1,12 v 29.3 h 48 V 12 Z"
         id="path4" />
      <path
         fill="url(#client-grad)"
         d="m 7.5,12.5 v 29 l 49,-29 z"
         transform="matrix(0.98,0,0,1.01,0.7,-0.6)"
         id="path5" />
    </g>
    <!-- Server icon -->
    <linearGradient
       id="server-grad-a"
       x1="32.799999"
       x2="32.799999"
       y1="32"
       y2="57.599998"
       gradientUnits="userSpaceOnUse">
      <stop
         offset="0"
         stop-color="#b7bec8"
         id="stop5" />
      <stop
         offset="1"
         stop-color="#373e48"
         id="stop6" />
    </linearGradient>
    <linearGradient
       id="server-grad-b"
       x1="27.200001"
       x2="27.200001"
       y1="6.3000002"
       y2="32"
       gradientUnits="userSpaceOnUse">
      <stop
         offset="0"
         stop-color="#b7b7c8"
         id="stop7" />
      <stop
         offset="1"
         stop-color="#373748"
         id="stop8" />
    </linearGradient>
    <path
       id="server-dot"
       d="m 50.4,42.2 c 0,1.2 -0.8,2 -1.9,2 -1.1,0 -1.9,-0.8 -1.9,-2 0,-1.2 0.8,-1.9 1.9,-1.9 1.1,0 1.9,0.8 1.9,2" />
    <g
       id="server">
      <path
         fill="url(#server-grad-a)"
         d="M 56.8,58.3 H 7.2 c -2,0 -3.6,-1.6 -3.6,-3.6 V 35.6 c 0,-2 1.6,-3.6 3.6,-3.6 h 49.6 c 2,0 3.6,1.6 3.6,3.6 v 19.1 c 0,2 -1.6,3.6 -3.6,3.6"
         id="path8" />
      <path
         fill="url(#server-grad-b)"
         d="M 56.8,32 H 7.2 C 5.2,32 3.6,30.4 3.6,28.4 V 9.3 c 0,-2 1.6,-3.6 3.6,-3.6 h 49.6 c 2,0 3.6,1.6 3.6,3.6 v 19.1 c 0,2 -1.6,3.6 -3.6,3.6"
         id="path9" />
      <g
         fill="#cccccc"
         id="g18">
        <use
           href="#server-dot"
           id="use9" />
        <use
           href="#server-dot"
           x="-7.5999999"
           id="use10" />
        <use
           href="#server-dot"
           x="3.8"
           y="5.6999998"
           id="use11" />
        <use
           href="#server-dot"
           x="-3.8"
           y="5.6999998"
           id="use12" />
        <use
           href="#server-dot"
           x="-15.1"
           id="use13" />
        <path
           d="m 39,47.9 c 0,1.1 -0.7,1.9 -1.9,1.9 -1,0 -1.9,-0.8 -1.9,-1.9 0,-1.1 0.8,-1.9 2,-1.9 1.2,0 1.8,0.8 1.8,1.9"
           id="path13" />
        <use
           href="#server-dot"
           y="-26.299999"
           id="use14" />
        <use
           href="#server-dot"
           x="-7.5999999"
           y="-26.299999"
           id="use15" />
        <use
           href="#server-dot"
           x="3.8"
           y="-20.6"
           id="use16" />
        <use
           href="#server-dot"
           x="-3.8"
           y="-20.6"
           id="use17" />
        <use
           href="#server-dot"
           x="-15.1"
           y="-26.299999"
           id="use18" />
        <path
           d="m 39,21.6 c 0,1.1 -0.7,1.9 -1.9,1.9 -1,0 -1.9,-0.8 -1.9,-1.9 0,-1.1 0.8,-1.9 2,-1.9 1.2,0 1.8,0.8 1.8,1.9"
           id="path18" />
      </g>
      <g
         fill="#00ff00"
         id="g19">
        <circle
           cx="13.9"
           cy="45.200001"
           r="3.3"
           id="circle18" />
        <circle
           cx="13.9"
           cy="18.799999"
           r="3.3"
           id="circle19" />
      </g>
    </g>
    <!-- Browser icon -->
    <g
       id="browser">
      <!-- Window frame -->
      <rect
         x="0"
         y="0"
         width="50"
         height="40"
         rx="4"
         fill="#4b5563"
         stroke="#6b7280"
         stroke-width="1"
         id="rect19" />
      <!-- Title bar -->
      <rect
         x="0"
         y="0"
         width="50"
         height="10"
         rx="4"
         fill="#6b7280"
         id="rect20" />
      <rect
         x="0"
         y="6"
         width="50"
         height="4"
         fill="#6b7280"
         id="rect21" />
      <!-- Window buttons -->
      <circle
         cx="7"
         cy="5"
         r="2"
         fill="#ef4444"
         id="circle21" />
      <circle
         cx="14"
         cy="5"
         r="2"
         fill="#eab308"
         id="circle22" />
      <circle
         cx="21"
         cy="5"
         r="2"
         fill="#22c55e"
         id="circle23" />
      <!-- Globe/content area -->
      <circle
         cx="25"
         cy="25"
         r="10"
         fill="none"
         stroke="#60a5fa"
         stroke-width="1.5"
         id="circle24" />
      <ellipse
         cx="25"
         cy="25"
         rx="4"
         ry="10"
         fill="none"
         stroke="#60a5fa"
         stroke-width="1"
         id="ellipse24" />
      <line
         x1="15"
         y1="25"
         x2="35"
         y2="25"
         stroke="#60a5fa"
         stroke-width="1"
         id="line24" />
    </g>
    <!-- Webserver icon -->
    <linearGradient
       id="ws-grad-a"
       x1="27.6"
       x2="27.6"
       y1="1.5"
       y2="20.6"
       gradientUnits="userSpaceOnUse">
      <stop
         offset="0"
         stop-color="#5f8dd3"
         id="stop24" />
      <stop
         offset="1"
         stop-color="#214478"
         id="stop25" />
    </linearGradient>
    <linearGradient
       id="ws-grad-b"
       x1="23.700001"
       x2="23.700001"
       y1="20.6"
       y2="39.5"
       gradientUnits="userSpaceOnUse">
      <stop
         offset="0"
         stop-color="#5f5fd3"
         id="stop26" />
      <stop
         offset="1"
         stop-color="#212178"
         id="stop27" />
    </linearGradient>
    <g
       id="webserver">
      <g
         transform="scale(0.85)"
         id="g52">
        <path
           fill="url(#ws-grad-a)"
           d="M 55.4,20.5 H 4.6 A 3.6,3.6 0 0 1 1,16.9 V 5 A 3.6,3.6 0 0 1 4.6,1.4 H 55.4 A 3.6,3.6 0 0 1 59,5.1 V 17 a 3.6,3.6 0 0 1 -3.6,3.6 z"
           id="path27" />
        <circle
           cx="30"
           cy="53.5"
           r="4"
           fill="#00ff00"
           stroke="#424a9d"
           stroke-width="2"
           id="circle27" />
        <path
           fill="url(#ws-grad-b)"
           d="M 55.4,39.5 H 4.6 A 3.6,3.6 0 0 1 1,35.9 V 24 A 3.6,3.6 0 0 1 4.6,20.4 H 55.4 A 3.6,3.6 0 0 1 59,24 v 11.8 a 3.6,3.6 0 0 1 -3.6,3.6 z"
           id="path28" />
        <g
           fill="none"
           stroke="#424a9d"
           stroke-width="2"
           id="g30">
          <path
             stroke-linecap="round"
             d="m 1,53.5 h 25 m 8,0 h 25"
             id="path29" />
          <path
             d="m 30,49.5 v -10"
             id="path30" />
        </g>
        <g
           fill="#07be2d"
           id="g31">
          <circle
             cx="10.5"
             cy="11"
             r="3.5"
             id="circle30" />
          <circle
             cx="10.5"
             cy="30"
             r="3.5"
             id="circle31" />
        </g>
        <g
           fill="#afc6e9"
           id="g51">
          <circle
             cx="50"
             cy="9.5"
             r="1"
             id="circle32" />
          <circle
             cx="46"
             cy="9.5"
             r="1"
             id="circle33" />
          <circle
             cx="52"
             cy="12.5"
             r="1"
             id="circle34" />
          <circle
             cx="48"
             cy="12.5"
             r="1"
             id="circle35" />
          <circle
             cx="42"
             cy="9.5"
             r="1"
             id="circle36" />
          <circle
             cx="44"
             cy="12.5"
             r="1"
             id="circle37" />
          <circle
             cx="38"
             cy="9.5"
             r="1"
             id="circle38" />
          <circle
             cx="40"
             cy="12.5"
             r="1"
             id="circle39" />
          <circle
             cx="34"
             cy="9.5"
             r="1"
             id="circle40" />
          <circle
             cx="36"
             cy="12.5"
             r="1"
             id="circle41" />
          <circle
             cx="50"
             cy="28.5"
             r="1"
             id="circle42" />
          <circle
             cx="46"
             cy="28.5"
             r="1"
             id="circle43" />
          <circle
             cx="52"
             cy="31.5"
             r="1"
             id="circle44" />
          <circle
             cx="48"
             cy="31.5"
             r="1"
             id="circle45" />
          <circle
             cx="42"
             cy="28.5"
             r="1"
             id="circle46" />
          <circle
             cx="44"
             cy="31.5"
             r="1"
             id="circle47" />
          <circle
             cx="38"
             cy="28.5"
             r="1"
             id="circle48" />
          <circle
             cx="40"
             cy="31.5"
             r="1"
             id="circle49" />
          <circle
             cx="34"
             cy="28.5"
             r="1"
             id="circle50" />
          <circle
             cx="36"
             cy="31.5"
             r="1"
             id="circle51" />
        </g>
      </g>
    </g>
    <!-- Arrowhead markers -->
    <marker
       id="arrowhead"
       markerWidth="10"
       markerHeight="7"
       refX="9"
       refY="3.5"
       orient="auto">
      <polygon
         points="10,3.5 0,7 0,0 "
         fill="#94a3b8"
         id="polygon52" />
    </marker>
    <marker
       id="arrowhead-red"
       markerWidth="10"
       markerHeight="7"
       refX="9"
       refY="3.5"
       orient="auto">
      <polygon
         points="10,3.5 0,7 0,0 "
         fill="#dc2626"
         id="polygon53" />
    </marker>
  </defs>
  <!-- GARLIC MESSAGE label -->
  <text
     x="440.47168"
     y="13.104492"
     class="garlic-label"
     style="font-size:18px"
     id="text53">GARLIC MESSAGE</text>
  <!-- Browser -->
  <g
     transform="translate(5.4541016,113.56684)"
     id="g53">
    <use
       href="#browser"
       id="use53" />
  </g>
  <text
     x="30.454102"
     y="173.56683"
     class="label"
     id="text54">HTTP</text>
  <text
     x="30.454102"
     y="185.56683"
     class="label"
     id="text55">Request</text>
  <text
     x="30.454102"
     y="203.56683"
     class="name"
     id="text56">BROWSER</text>
  <!-- Arrow Browser to Alice -->
  <line
     x1="60.454102"
     y1="133.56683"
     x2="90.454102"
     y2="133.56683"
     class="arrow"
     marker-end="url(#arrowhead)"
     id="line56" />
  <!-- Alice -->
  <g
     transform="matrix(0.55,0,0,0.55,93.454102,101.56684)"
     id="g56">
    <use
       href="#client"
       id="use56" />
  </g>
  <text
     x="115.4541"
     y="163.56683"
     class="name"
     id="text57">Alice</text>
  <!-- Top row - Outbound tunnel (C -> D -> E) then Inbound (F) -->
  <!-- C -->
  <circle
     cx="210.4541"
     cy="58.566841"
     r="20"
     class="hop-circle"
     id="circle57" />
  <text
     x="210.4541"
     y="63.566841"
     class="hop-label"
     id="text58">C</text>
  <!-- D -->
  <circle
     cx="310.4541"
     cy="58.566841"
     r="20"
     class="hop-circle"
     id="circle58" />
  <text
     x="310.4541"
     y="63.566841"
     class="hop-label"
     id="text59">D</text>
  <!-- E -->
  <circle
     cx="440.4541"
     cy="58.566841"
     r="20"
     class="hop-circle"
     id="circle59" />
  <text
     x="440.4541"
     y="63.566841"
     class="hop-label"
     id="text60">E</text>
  <!-- F -->
  <circle
     cx="570.4541"
     cy="58.566841"
     r="20"
     class="hop-circle"
     id="circle60" />
  <text
     x="570.4541"
     y="63.566841"
     class="hop-label"
     id="text61">F</text>
  <!-- Top row arrows -->
  <line
     x1="140.4541"
     y1="113.56684"
     x2="190.4541"
     y2="68.566841"
     class="arrow"
     marker-end="url(#arrowhead)"
     id="line61" />
  <line
     x1="230.4541"
     y1="58.566841"
     x2="288.4541"
     y2="58.566841"
     class="arrow"
     marker-end="url(#arrowhead)"
     id="line62" />
  <line
     x1="330.4541"
     y1="58.566841"
     x2="418.4541"
     y2="58.566841"
     class="arrow"
     marker-end="url(#arrowhead)"
     id="line63" />
  <line
     x1="460.4541"
     y1="58.566841"
     x2="548.4541"
     y2="58.566841"
     class="arrow"
     marker-end="url(#arrowhead)"
     id="line64" />
  <line
     x1="590.4541"
     y1="58.566841"
     x2="655.4541"
     y2="113.56684"
     class="arrow"
     marker-end="url(#arrowhead)"
     id="line65" />
  <!-- Top row labels -->
  <text
     x="230.4541"
     y="46.566841"
     class="tunnel-label"
     id="text65">Outbound</text>
  <text
     x="500.4541"
     y="46.566841"
     class="tunnel-label"
     id="text66">Inbound</text>
  <text
     x="310.4541"
     y="93.566841"
     class="label"
     id="text67">Alice Client</text>
  <text
     x="310.4541"
     y="105.56684"
     class="label"
     id="text68">Tunnels</text>
  <text
     x="500.4541"
     y="93.566841"
     class="label"
     id="text69">Bob Server</text>
  <text
     x="500.4541"
     y="105.56684"
     class="label"
     id="text70">Tunnels</text>
  <!-- Bottom row - Inbound tunnel (K <- J <- H <- G) -->
  <!-- K -->
  <circle
     cx="210.4541"
     cy="218.56683"
     r="20"
     class="hop-circle"
     id="circle70" />
  <text
     x="210.4541"
     y="223.56683"
     class="hop-label"
     id="text71">K</text>
  <!-- J -->
  <circle
     cx="310.4541"
     cy="218.56683"
     r="20"
     class="hop-circle"
     id="circle71" />
  <text
     x="310.4541"
     y="223.56683"
     class="hop-label"
     id="text72">J</text>
  <!-- H -->
  <circle
     cx="440.4541"
     cy="218.56683"
     r="20"
     class="hop-circle"
     id="circle72" />
  <text
     x="440.4541"
     y="223.56683"
     class="hop-label"
     id="text73">H</text>
  <!-- G -->
  <circle
     cx="570.4541"
     cy="218.56683"
     r="20"
     class="hop-circle"
     id="circle73" />
  <text
     x="570.4541"
     y="223.56683"
     class="hop-label"
     id="text74">G</text>
  <!-- Bottom row arrows (reversed direction) -->
  <line
     x1="190.4541"
     y1="218.56683"
     x2="145.4541"
     y2="163.56683"
     class="arrow"
     marker-end="url(#arrowhead)"
     id="line74" />
  <line
     x1="288.4541"
     y1="218.56683"
     x2="230.4541"
     y2="218.56683"
     class="arrow"
     marker-end="url(#arrowhead)"
     id="line75" />
  <line
     x1="418.4541"
     y1="218.56683"
     x2="330.4541"
     y2="218.56683"
     class="arrow"
     marker-end="url(#arrowhead)"
     id="line76" />
  <line
     x1="548.4541"
     y1="218.56683"
     x2="460.4541"
     y2="218.56683"
     class="arrow"
     marker-end="url(#arrowhead)"
     id="line77" />
  <line
     x1="655.4541"
     y1="163.56683"
     x2="590.4541"
     y2="218.56683"
     class="arrow"
     marker-end="url(#arrowhead)"
     id="line78" />
  <!-- Bottom row labels -->
  <text
     x="255.4541"
     y="256.56683"
     class="tunnel-label"
     id="text78">Inbound</text>
  <text
     x="500.4541"
     y="256.56683"
     class="tunnel-label"
     id="text79">Outbound</text>
  <!-- Bob -->
  <g
     transform="matrix(0.55,0,0,0.55,655.4541,101.56684)"
     id="g79">
    <use
       href="#server"
       id="use79" />
  </g>
  <text
     x="680.4541"
     y="168.56683"
     class="name"
     id="text80">BOB</text>
  <!-- Web Server -->
  <g
     transform="translate(770.4541,93.566841)"
     id="g80">
    <use
       href="#webserver"
       id="use80" />
  </g>
  <text
     x="800.4541"
     y="163.56683"
     class="name"
     id="text81">WEB SERVER</text>
  <!-- Arrow Bob to Web Server -->
  <line
     x1="715.4541"
     y1="133.56683"
     x2="765.4541"
     y2="133.56683"
     class="arrow"
     marker-end="url(#arrowhead)"
     id="line81" />
  <!-- Garlic message curves - positioned to not cover text -->
  <!-- Top curve - main garlic message -->
  <path
     d="m 145.4541,98.566841 q 245,-115 535,0"
     class="garlic-arrow"
     marker-end="url(#arrowhead-red)"
     id="path81" />
  <!-- Clove 1 label -->
  <text
     x="730.4541"
     y="68.566841"
     class="clove-label"
     style="font-size:12px"
     id="text82">Clove 1:</text>
  <text
     x="730.4541"
     y="82.566841"
     class="clove-label"
     style="font-size:12px"
     id="text83">HTTP Request data</text>
  <!-- Clove 3 label (at Bob) -->
  <text
     x="730.4541"
     y="188.56683"
     class="clove-label"
     style="font-size:12px"
     id="text84">Clove 3:</text>
  <text
     x="730.4541"
     y="202.56683"
     class="clove-label"
     style="font-size:12px"
     id="text85">Database Store Message</text>
  <text
     x="730.4541"
     y="216.56683"
     class="clove-label"
     style="font-size:12px"
     id="text86">with Alice client LeaseSet</text>
  <text
     x="730.4541"
     y="230.56683"
     class="clove-label"
     style="font-size:12px"
     id="text87">(Router J and Tunnel ID)</text>
  <!-- Bottom curve - Delivery Status Message -->
  <path
     d="m 680.4541,178.56684 q -290,115 -535,0"
     class="garlic-arrow"
     marker-end="url(#arrowhead-red)"
     id="path87" />
  <!-- Clove 2 label -->
  <text
     x="440.39258"
     y="285.83957"
     class="garlic-label"
     id="text88">Clove 2: Delivery Status Message</text>
  <text
     x="440.47168"
     y="13.104492"
     class="garlic-label"
     style="font-size:18px"
     id="text1">GARLIC MESSAGE</text>
  <g
     transform="translate(5.4541016,113.56684)"
     id="g1">
    <use
       href="#browser"
       id="use1" />
  </g>
  <text
     x="30.454102"
     y="173.56683"
     class="label"
     id="text2">HTTP</text>
  <text
     x="30.454102"
     y="185.56683"
     class="label"
     id="text3">Request</text>
  <text
     x="30.454102"
     y="203.56683"
     class="name"
     id="text4">BROWSER</text>
  <line
     x1="60.454102"
     y1="133.56683"
     x2="90.454102"
     y2="133.56683"
     class="arrow"
     marker-end="url(#arrowhead)"
     id="line4" />
  <g
     transform="matrix(0.55,0,0,0.55,93.454102,101.56684)"
     id="g4">
    <use
       href="#client"
       id="use4" />
  </g>
  <text
     x="115.4541"
     y="163.56683"
     class="name"
     id="text5">Alice</text>
  <circle
     cx="210.4541"
     cy="58.566841"
     r="20"
     class="hop-circle"
     id="circle5" />
  <text
     x="210.4541"
     y="63.566841"
     class="hop-label"
     id="text6">C</text>
  <circle
     cx="310.4541"
     cy="58.566841"
     r="20"
     class="hop-circle"
     id="circle6" />
  <text
     x="310.4541"
     y="63.566841"
     class="hop-label"
     id="text7">D</text>
  <circle
     cx="440.4541"
     cy="58.566841"
     r="20"
     class="hop-circle"
     id="circle7" />
  <text
     x="440.4541"
     y="63.566841"
     class="hop-label"
     id="text8">E</text>
  <circle
     cx="570.4541"
     cy="58.566841"
     r="20"
     class="hop-circle"
     id="circle8" />
  <text
     x="570.4541"
     y="63.566841"
     class="hop-label"
     id="text9">F</text>
  <line
     x1="140.4541"
     y1="113.56684"
     x2="190.4541"
     y2="68.566841"
     class="arrow"
     marker-end="url(#arrowhead)"
     id="line9" />
  <line
     x1="230.4541"
     y1="58.566841"
     x2="288.4541"
     y2="58.566841"
     class="arrow"
     marker-end="url(#arrowhead)"
     id="line10" />
  <line
     x1="330.4541"
     y1="58.566841"
     x2="418.4541"
     y2="58.566841"
     class="arrow"
     marker-end="url(#arrowhead)"
     id="line11" />
  <line
     x1="460.4541"
     y1="58.566841"
     x2="548.4541"
     y2="58.566841"
     class="arrow"
     marker-end="url(#arrowhead)"
     id="line12" />
  <line
     x1="590.4541"
     y1="58.566841"
     x2="655.4541"
     y2="113.56684"
     class="arrow"
     marker-end="url(#arrowhead)"
     id="line13" />
  <text
     x="230.4541"
     y="46.566841"
     class="tunnel-label"
     id="text13">Outbound</text>
  <text
     x="500.4541"
     y="46.566841"
     class="tunnel-label"
     id="text14">Inbound</text>
  <text
     x="310.4541"
     y="93.566841"
     class="label"
     id="text15">Alice Client</text>
  <text
     x="310.4541"
     y="105.56684"
     class="label"
     id="text16">Tunnels</text>
  <text
     x="500.4541"
     y="93.566841"
     class="label"
     id="text17">Bob Server</text>
  <text
     x="500.4541"
     y="105.56684"
     class="label"
     id="text18">Tunnels</text>
  <circle
     cx="210.4541"
     cy="218.56683"
     r="20"
     class="hop-circle"
     id="circle20" />
  <text
     x="210.4541"
     y="223.56683"
     class="hop-label"
     id="text20">K</text>
  <circle
     cx="310.4541"
     cy="218.56683"
     r="20"
     class="hop-circle"
     id="circle25" />
  <text
     x="310.4541"
     y="223.56683"
     class="hop-label"
     id="text25">J</text>
  <circle
     cx="440.4541"
     cy="218.56683"
     r="20"
     class="hop-circle"
     id="circle26" />
  <text
     x="440.4541"
     y="223.56683"
     class="hop-label"
     id="text26">H</text>
  <circle
     cx="570.4541"
     cy="218.56683"
     r="20"
     class="hop-circle"
     id="circle28" />
  <text
     x="570.4541"
     y="223.56683"
     class="hop-label"
     id="text28">G</text>
  <line
     x1="190.4541"
     y1="218.56683"
     x2="145.4541"
     y2="163.56683"
     class="arrow"
     marker-end="url(#arrowhead)"
     id="line28" />
  <line
     x1="288.4541"
     y1="218.56683"
     x2="230.4541"
     y2="218.56683"
     class="arrow"
     marker-end="url(#arrowhead)"
     id="line29" />
  <line
     x1="418.4541"
     y1="218.56683"
     x2="330.4541"
     y2="218.56683"
     class="arrow"
     marker-end="url(#arrowhead)"
     id="line30" />
  <line
     x1="548.4541"
     y1="218.56683"
     x2="460.4541"
     y2="218.56683"
     class="arrow"
     marker-end="url(#arrowhead)"
     id="line31" />
  <line
     x1="655.4541"
     y1="163.56683"
     x2="590.4541"
     y2="218.56683"
     class="arrow"
     marker-end="url(#arrowhead)"
     id="line32" />
  <text
     x="255.4541"
     y="256.56683"
     class="tunnel-label"
     id="text32">Inbound</text>
  <text
     x="500.4541"
     y="256.56683"
     class="tunnel-label"
     id="text33">Outbound</text>
  <g
     transform="matrix(0.55,0,0,0.55,655.4541,101.56684)"
     id="g33">
    <use
       href="#server"
       id="use33" />
  </g>
  <text
     x="680.4541"
     y="168.56683"
     class="name"
     id="text34">BOB</text>
  <g
     transform="translate(770.4541,93.566841)"
     id="g34">
    <use
       href="#webserver"
       id="use34" />
  </g>
  <text
     x="800.4541"
     y="163.56683"
     class="name"
     id="text35">WEB SERVER</text>
  <line
     x1="715.4541"
     y1="133.56683"
     x2="765.4541"
     y2="133.56683"
     class="arrow"
     marker-end="url(#arrowhead)"
     id="line35" />
  <path
     d="m 145.4541,98.566841 q 245,-115 535,0"
     class="garlic-arrow"
     marker-end="url(#arrowhead-red)"
     id="path35" />
  <text
     x="730.4541"
     y="68.566841"
     class="clove-label"
     style="font-size:12px"
     id="text36">Clove 1:</text>
  <text
     x="730.4541"
     y="82.566841"
     class="clove-label"
     style="font-size:12px"
     id="text37">HTTP Request data</text>
  <text
     x="730.4541"
     y="188.56683"
     class="clove-label"
     style="font-size:12px"
     id="text38">Clove 3:</text>
  <text
     x="730.4541"
     y="202.56683"
     class="clove-label"
     style="font-size:12px"
     id="text39">Database Store Message</text>
  <text
     x="730.4541"
     y="216.56683"
     class="clove-label"
     style="font-size:12px"
     id="text40">with Alice client LeaseSet</text>
  <text
     x="730.4541"
     y="230.56683"
     class="clove-label"
     style="font-size:12px"
     id="text41">(Router J and Tunnel ID)</text>
  <path
     d="m 680.4541,178.56684 q -290,115 -535,0"
     class="garlic-arrow"
     marker-end="url(#arrowhead-red)"
     id="path41" />
  <text
     x="440.39258"
     y="285.83957"
     class="garlic-label"
     id="text42">Clove 2: Delivery Status Message</text>
</svg>
