<svg xmlns="http://www.w3.org/2000/svg" xml:space="preserve" viewBox="0 0 132.1 254.7">
  <path d="M25.1 254.3c-13.6-2.4-11.2-14.6-2.7-21.3 2.7-2 2.4-2.4 2-5.8-1.8-18.8-1.6-33.5.2-46.9.9-6.7 1-6.3-1.3-7.5-3.1-1.5-3.7-3.3-2.7-8 .7-3.2.7-3.3-2.3-3.3-17.3 0-23.7-16.7-13.1-34.2 4-6.7 16.8-18.2 18.4-19.7 1.4-1.4 1.4-1.3-1.1-4a61.4 61.4 0 0 1 12.2-92.8A67 67 0 0 1 62 .6c35.3-5.8 83.1 29.2 63.8 81.8-2.6 7-7.7 14.9-13.8 21.2-3 3.1-3 3.2-.5 3.7l2.4.5c.4.2 1.8.4 3 .6 8.5 1 8.5 1 5.3 7.5-2 4.4-2 4.4-1.3 5.5a65 65 0 0 1 9.3 16.5c4.7 13.4-.2 25.2-11.6 28.1 2.6 5.4-4.8 8.4-5.6 13.5-2.2 14.5 1.7 33 .8 44.9-.4 4.6-.7 3.9 3 6 13.8 8 15.6 23 2.3 23.4-8.8.3-15.7.6-24-1.1a86 86 0 0 1-14-4.2c-7-2.7-7.1-5.7-11.8.2-6.6 8.3-44.3 5.6-44.3 5.6"/>
  <path fill="#f1eb0d" d="M84.9 111c42-13.7 50.1-71.2 13.3-94C52-11.7-4 39.5 21.3 87.2c4.7 8.8 17 20.8 20.4 20 1.2-.3 17-2.5 17.7-2.5q1.4 0 14 5.7c5.8 2.6 5.7 2.6 11.5.7"/>
  <path fill="#060504" d="M54.4 95.3c-3.6-3 3.6-12.3 12-15.5 10.6-4.2 22.2.7 24.4 10.2 1 4.3-4.2 5.4-5.6 1.3-3.6-10.5-20.4-9.4-25.6 1.5q-2.5 4.8-5.2 2.5"/>
  <path d="M93.1 30.7c-22.2 0-26.1 32.2-4.5 37 2.6.6 7 .4 9.5-.4 21-6.5 17-36.5-5-36.6"/>
  <path fill="#fff" d="M93.7 35.6q4.7.1 9 4.1c4.3 4.4 5.2 13.5 1.6 16.7l-.5.4.2-.4c2.3-4.5-1.8-10.8-7-10.8-8.6 0-10.3 13.7-2 16q1.8.6 1 .8c-4.2 2.4-12.8-1.4-15.3-6.7-5-10.5 3.7-20.4 13-20"/>
  <path d="M49.9 31.8c-5-.1-10.2 1.7-14.5 6C24 49.3 29.8 68 45.4 70.4c10.4 1.5 21-5.7 22.9-15.6a19 19 0 0 0-18.4-22.9"/>
  <path fill="#fff" d="M50.4 37.2c6.9.5 13 5.9 12.9 13.6 0 1.5-.4 3.7-.5 2.8-.2-3.2-4-6.5-7.5-6.5-8.5 0-10.6 12.9-2.7 16.5 1.5.8 1.5.8 0 1.2C37.1 69.1 27.8 49.3 41 39.9q4.5-3 9.4-2.7"/>
  <path fill="#f8b29d" d="M114.5 154.6c12.9-6 7.6-28.6-6.2-26.4-8.9 1.5-7.7 8.1 1.5 9.4 5.7.8 5.3 3.3-.4 3.3-5 0-8.2 2.4-6.8 5 .8 1.4 2.3 2 6.2 2.3 4.7.3 4.5 3.3-.2 3.3-3.4 0-4.7 2.2-2 3.5 1.6.8 5.8.6 7.9-.4"/>
  <path fill="#fb0532" d="M32 110.8c-2.4.7-10.7 7.3-14.8 12-14.6 16.5-14 30.3 1.3 32.6l2.5.4c1 .2 7.6 0 7.8-.2.1 0-.2-1-.7-2a20 20 0 0 1-1-16.1c.7-2.4.8-2.3-3.2-2.5s-4.6-.4-4.9-1.2q-.7-2 8.5-2.7c3.4-.3 3.4-.3 5.3-2.1a13 13 0 0 1 5.3-3.6q1.5-.4 1.4-1c0-1.3-1.4-10.1-1.7-10.4-.7-.8-5-3.1-5.7-3.2m94.4 34.5-.6 1.8a19 19 0 0 1-7.8 11c-3.3 2-2 3.2 1.9 1.5 4-1.8 6.3-6 6.6-11.5zm-92.3 15.3q-1.5 0-2.8.4c-3.2.7-3 .5-3.4 3.6-.5 3.4 0 3.8 8.6 6.8 2.5.8 6.2-7.3 4.2-9.4-1-1-3.8-1.5-6.6-1.4m67.6 9.3c-1.5 0-2.8.7-8.1 3.4-9.5 4.9-9.5 4.9-3.5 3.7a65 65 0 0 0 14.3-4.2c4.3-1.7 4.3-1.8-1-2.7zm-43.5 2.3-2.3.2-7.5.5c-4.7.4-5.6.6-4.5.9.4 0 2 .5 3.7 1 3.9 1 11.2 2.5 14.8 2.9 5.9.6 12.1.9 13.3.6.7-.2.5-.3-6.5-2.8-2.3-.8-5.3-2-6.8-2.4-2-.8-2.5-1-4.2-.9"/>
  <path fill="#f8b29d" d="M48.7 156.7c2.3-1 2.4-2.7 0-3.4-3.2-1.1-3.7-1.4-4-2q-1.4-2.3 3.6-1.9c10.3 1 10.1-6.6-.2-8-5.3-.7-4.7-3.2 1-3.7 10.4-.8 8.8-8.6-1.8-8.7-15-.2-22.2 20.3-9.4 27 1.3.6 2 .8 4.4 1.4 1.3.3 5 0 6.4-.7"/>
  <path fill="#8aa98f" d="M58.2 234.3q9.3-.9 10.9-3.4c.6-1 .6-1.4 1.1-10.7.6-11.4 2.1-24.9 3-26.3l1.5-1.2 1.7-1.4c2.2-1.8 2.7-.6 2 4.7-1.5 11.6-2.5 34-1.5 35.2 2.5 3.3 27.3 1.2 29.2-2.5 1.5-3 1.4-36.5-.2-48-.3-2.2 0-2.2-3-1-19 6.7-41.3 6.3-65.3-1.2-4.9-1.5-4.6-1.6-5.1 1.6-2 13.1-2.1 27-.4 47.3.4 4.4 3.7 5.8 16.7 7 2.1.2 6.7.2 9.4-.1"/>
  <path fill="#d8cfb4" d="M57.6 107.9h-1l-16 2.6c-.2 0 .3 3.6 2 13.4.1.8.1.8 3.4.7 11.7-.5 19.2 9.3 11.3 14.8-.6.4-.6.4.3 1.4 3.7 3.8 2.6 10-2 11.9-.9.3-1 .4-.8 1.5.4 3.8-3 7-8.2 7.6l-2.5.4-.7 3.4-.6 4q-.1.6.2.7l15.5-1c1.5 0 1.2 1 4.3-18.6 1.3-8 1.3-8.1.4-14.7l-1-7.1c-2-18.2-2.4-21-4.6-21m3 .3q-.5 0-.1 1.4l4.1 31.4c.2 1.3.2 1.3 6.8 3.7l8.4 3 .3-1.4 1.2-13.6c.4-3.5 1.4-15.1 1.3-15.2l-6.6-2.9-10.5-4.5c-3-1.3-4.3-1.9-4.8-1.9m44.9.8c-.2.2-2.7 9.8-4 15.1-.8 3-.8 3 .5 2a14 14 0 0 1 3-1.5c2.8-1 7.2-1.1 10-.3l1.6-3c.8-1.6 2-4.4 2.9-6 1.7-3.7 2-3.2-2.7-4.2zm-1.1.3c-.5 0-2.8 1-10.8 4.1-11.8 4.6-10 3.2-10.5 8.9l-1.4 14.5c-1 11.2-1 11-.6 11l14.1-4.6c.3-.1.7-1.3 2.2-6.7l.6-3.2a140 140 0 0 0 3.8-13.7l2.5-9.6q.3-.7 0-.7M98.5 136q-.2-.2-1.2 3.6l-1.2 4c-.1.2-9.5 3.2-12.6 4.2-2.8.8-2.8.8-2.6 6.4l.8 21.9 13.2-6.8c4.5-2.2 5-2.5 4.9-3l-2.5-13.7q-.7-3.4.2-2.5l1.4 7.2c1.8 10.5 1.1 9.2 5.2 10l7 1.3c4.7.9 4.4 1.2 2.8-3.7-1.8-5.2-1.4-4.7-3.9-4.8-6.6-.4-11-4.7-8.8-9 .2-.4 0-.6-.8-1.4-3-2.5-3-6.8-.2-9.8.8-.8.8-.8-.3-2a7 7 0 0 1-1.4-2m-33.7 7.3-1.3 8-2 11.8c-1 6.8-1.5 5.9 4.3 8l14.8 5.2c.2 0 .2-2.1.1-5-.8-24.7-.4-22.5-4.7-24z"/>
</svg>
