<?xml version="1.0" encoding="UTF-8" standalone="no"?>
<svg
   viewBox="0 35 400 265"
   width="374"
   height="259"
   style="display: block; margin: 0 auto;"
   version="1.1"
   id="svg14"
   sodipodi:docname="network-database-diagram.svg"
   inkscape:export-filename="network-database-diagram.svg"
   inkscape:export-xdpi="96"
   inkscape:export-ydpi="96"
   inkscape:version="1.4.3 (0d15f750, 2025-12-25)"
   xmlns:inkscape="http://www.inkscape.org/namespaces/inkscape"
   xmlns:sodipodi="http://sodipodi.sourceforge.net/DTD/sodipodi-0.dtd"
   xmlns="http://www.w3.org/2000/svg"
   xmlns:svg="http://www.w3.org/2000/svg">
  <sodipodi:namedview
     id="namedview14"
     pagecolor="#ffffff"
     bordercolor="#000000"
     borderopacity="0.25"
     inkscape:showpageshadow="2"
     inkscape:pageopacity="0.0"
     inkscape:pagecheckerboard="0"
     inkscape:deskcolor="#d1d1d1"
     inkscape:zoom="2.2"
     inkscape:cx="200"
     inkscape:cy="216.59091"
     inkscape:window-width="1785"
     inkscape:window-height="1186"
     inkscape:window-x="336"
     inkscape:window-y="30"
     inkscape:window-maximized="0"
     inkscape:current-layer="svg14" />
  <defs
     id="defs9">
    <style
       id="style1">
      .name { font-family: Arial, sans-serif; font-size: 16px; font-weight: 600; fill: #94a3b8; text-anchor: middle; }
      .label { font-family: Arial, sans-serif; font-size: 11px; font-weight: 500; fill: #94a3b8; }
      .db-label { font-family: Arial, sans-serif; font-size: 16px; font-weight: 600; fill: #94a3b8; text-anchor: middle; }
      .arrow { fill: none; stroke: #94a3b8; stroke-width: 2; }
    </style>
    <!-- Client icon -->
    <linearGradient
       id="client-grad"
       x1="7.8"
       x2="23.1"
       y1="10.4"
       y2="33.3"
       gradientUnits="userSpaceOnUse">
      <stop
         offset="0"
         stop-color="#d5e5ff"
         id="stop1" />
      <stop
         offset="1"
         stop-color="#acf"
         id="stop2" />
    </linearGradient>
    <g
       id="client">
      <path
         fill="#999"
         d="M35.2 44.9l1 7.6h-8.4l1.1-7.6z"
         id="path2" />
      <path
         fill="gray"
         d="M60 46c0 1.3-1.1 2.4-2.4 2.4H6.4A2.4 2.4 0 014 46V10c0-1.3 1.1-2.4 2.4-2.4h51.2c1.3 0 2.4 1 2.4 2.4zM23 52.2h18a2 2 45 012 2v.2a2 2 135 01-2 2H23a2 2 45 01-2-2v-.2a2 2 135 012-2z"
         id="path3" />
      <circle
         cx="32"
         cy="44.8"
         r="1.3"
         fill="#ccc"
         id="circle3" />
      <path
         fill="#87aade"
         d="M8.1 12v29.3h48V12z"
         id="path4" />
      <path
         fill="url(#client-grad)"
         d="M7.5 12.5v29l49-29z"
         transform="matrix(.98 0 0 1.01 .7 -.6)"
         id="path5" />
    </g>
    <!-- Database icon -->
    <linearGradient
       id="db-grad"
       x1="50%"
       x2="50%"
       y1="0%"
       y2="100%">
      <stop
         offset="0"
         stop-color="#9ca3af"
         id="stop5" />
      <stop
         offset="1"
         stop-color="#4b5563"
         id="stop6" />
    </linearGradient>
    <g
       id="database">
      <ellipse
         cx="0"
         cy="40"
         rx="30"
         ry="8"
         fill="#4b5563"
         id="ellipse6" />
      <rect
         x="-30"
         y="0"
         width="60"
         height="40"
         fill="url(#db-grad)"
         id="rect6" />
      <ellipse
         cx="0"
         cy="0"
         rx="30"
         ry="8"
         fill="#9ca3af"
         id="ellipse7" />
      <ellipse
         cx="0"
         cy="13"
         rx="30"
         ry="7"
         fill="none"
         stroke="#6b7280"
         stroke-width="1"
         id="ellipse8" />
      <ellipse
         cx="0"
         cy="27"
         rx="30"
         ry="7"
         fill="none"
         stroke="#6b7280"
         stroke-width="1"
         id="ellipse9" />
    </g>
    <!-- Arrowhead marker -->
    <marker
       id="arrowhead"
       markerWidth="10"
       markerHeight="7"
       refX="9"
       refY="3.5"
       orient="auto">
      <polygon
         points="0 0, 10 3.5, 0 7"
         fill="#94a3b8"
         id="polygon9" />
    </marker>
  </defs>
  <!-- Alice -->
  <g
     transform="matrix(0.7,0,0,0.7,46.363637,52.272727)"
     id="g9">
    <use
       href="#client"
       id="use9" />
  </g>
  <text
     x="68.363632"
     y="50.727272"
     class="name"
     id="text9">Alice</text>
  <!-- John -->
  <g
     transform="matrix(0.7,0,0,0.7,141.63636,52.272727)"
     id="g10">
    <use
       href="#client"
       id="use10" />
  </g>
  <text
     x="163.18182"
     y="50.727272"
     class="name"
     id="text10">John</text>
  <!-- Peter -->
  <g
     transform="matrix(0.7,0,0,0.7,217.81819,52.272727)"
     id="g11">
    <use
       href="#client"
       id="use11" />
  </g>
  <text
     x="241.18182"
     y="50.727272"
     class="name"
     id="text11">Peter</text>
  <!-- Database -->
  <g
     transform="translate(200, 230)"
     id="g12">
    <use
       href="#database"
       id="use12" />
  </g>
  <text
     x="200"
     y="295"
     class="db-label"
     id="text12">Network database</text>
  <!-- Arrow down from Alice - GET routerInfo -->
  <line
     x1="65"
     y1="105"
     x2="175"
     y2="218"
     class="arrow"
     marker-end="url(#arrowhead)"
     id="line12" />
  <text
     x="162.31314"
     y="45.319115"
     class="label"
     transform="rotate(45)"
     id="text13">GET routerInfo</text>
  <!-- Arrow up to Alice - routerInfo John, Peter -->
  <line
     x1="188.18182"
     y1="213.45454"
     x2="83.181816"
     y2="105.45454"
     class="arrow"
     marker-end="url(#arrowhead)"
     id="line13" />
  <text
     x="166.81291"
     y="8.0353041"
     class="label"
     transform="rotate(45)"
     id="text14">routerInfo John, Peter</text>
</svg>
