<svg xmlns="http://www.w3.org/2000/svg" viewBox="0 0 400 210" width="374" height="196" style="display: block; margin: 0 auto;">
  <defs>
    <style>
      .name { font-family: Arial, sans-serif; font-size: 17px; font-weight: 600; fill: #94a3b8; text-anchor: middle; }
      .label { font-family: Arial, sans-serif; font-size: 16px; font-weight: 500; fill: #94a3b8; }
      .db-label { font-family: Arial, sans-serif; font-size: 18px; font-weight: 600; fill: #94a3b8; text-anchor: middle; }
      .arrow { fill: none; stroke: #94a3b8; stroke-width: 2; }
    </style>
    
    <!-- Client icon -->
    <linearGradient id="client-grad" x1="7.8" x2="23.1" y1="10.4" y2="33.3" gradientUnits="userSpaceOnUse">
      <stop offset="0" stop-color="#d5e5ff"/>
      <stop offset="1" stop-color="#acf"/>
    </linearGradient>
    <g id="client">
      <path fill="#999" d="M35.2 44.9l1 7.6h-8.4l1.1-7.6z"/>
      <path fill="gray" d="M60 46c0 1.3-1.1 2.4-2.4 2.4H6.4A2.4 2.4 0 014 46V10c0-1.3 1.1-2.4 2.4-2.4h51.2c1.3 0 2.4 1 2.4 2.4zM23 52.2h18a2 2 45 012 2v.2a2 2 135 01-2 2H23a2 2 45 01-2-2v-.2a2 2 135 012-2z"/>
      <circle cx="32" cy="44.8" r="1.3" fill="#ccc"/>
      <path fill="#87aade" d="M8.1 12v29.3h48V12z"/>
      <path fill="url(#client-grad)" d="M7.5 12.5v29l49-29z" transform="matrix(.98 0 0 1.01 .7 -.6)"/>
    </g>
    
    <!-- Database icon -->
    <linearGradient id="db-grad" x1="50%" x2="50%" y1="0%" y2="100%">
      <stop offset="0" stop-color="#9ca3af"/>
      <stop offset="1" stop-color="#4b5563"/>
    </linearGradient>
    <g id="database">
      <ellipse cx="0" cy="40" rx="30" ry="8" fill="#4b5563"/>
      <rect x="-30" y="0" width="60" height="40" fill="url(#db-grad)"/>
      <ellipse cx="0" cy="0" rx="30" ry="8" fill="#9ca3af"/>
      <ellipse cx="0" cy="13" rx="30" ry="7" fill="none" stroke="#6b7280" stroke-width="1"/>
      <ellipse cx="0" cy="27" rx="30" ry="7" fill="none" stroke="#6b7280" stroke-width="1"/>
    </g>
    
    <!-- Arrowhead marker -->
    <marker id="arrowhead" markerWidth="10" markerHeight="7" refX="9" refY="3.5" orient="auto">
      <polygon points="0 0, 10 3.5, 0 7" fill="#94a3b8"/>
    </marker>
    

  </defs>
  
  <!-- Alice -->
  <g transform="translate(15, 45) scale(0.7)">
    <use href="#client"/>
  </g>
  <text x="37" y="38" class="name">Alice</text>
  
  <!-- John -->
  <g transform="translate(168, 45) scale(0.7)">
    <use href="#client"/>
  </g>
  <text x="190" y="38" class="name">John</text>
  
  <!-- Peter -->
  <g transform="translate(320, 45) scale(0.7)">
    <use href="#client"/>
  </g>
  <text x="342" y="38" class="name">Peter</text>
  
  <!-- Arrow Alice to John -->
  <line x1="65" y1="75" x2="165" y2="75" class="arrow" marker-end="url(#arrowhead)"/>
  <text x="105" y="63" class="label" text-anchor="middle">build tunnel</text>
  
  <!-- Arrow John to Peter -->
  <line x1="218" y1="75" x2="318" y2="75" class="arrow" marker-end="url(#arrowhead)"/>
  <text x="258" y="63" class="label" text-anchor="middle">build tunnel</text>
  
  <!-- Database -->
  <g transform="translate(200, 130)">
    <use href="#database"/>
  </g>
  <text x="200" y="195" class="db-label">Network database</text>

</svg>