<?xml version="1.0" encoding="UTF-8" standalone="no"?>
<svg
   viewBox="0 0 604.05469 91.624023"
   version="1.1"
   id="svg13"
   sodipodi:docname="tunnelSending.svg"
   width="604.05469"
   height="91.624023"
   inkscape:version="1.4.3 (0d15f750, 2025-12-25)"
   xmlns:inkscape="http://www.inkscape.org/namespaces/inkscape"
   xmlns:sodipodi="http://sodipodi.sourceforge.net/DTD/sodipodi-0.dtd"
   xmlns="http://www.w3.org/2000/svg"
   xmlns:svg="http://www.w3.org/2000/svg">
  <sodipodi:namedview
     id="namedview13"
     pagecolor="#ffffff"
     bordercolor="#000000"
     borderopacity="0.25"
     inkscape:showpageshadow="2"
     inkscape:pageopacity="0.0"
     inkscape:pagecheckerboard="0"
     inkscape:deskcolor="#d1d1d1"
     inkscape:zoom="1.1733333"
     inkscape:cx="346.44886"
     inkscape:cy="-210.9375"
     inkscape:window-width="1882"
     inkscape:window-height="1186"
     inkscape:window-x="595"
     inkscape:window-y="56"
     inkscape:window-maximized="0"
     inkscape:current-layer="svg13" />
  <defs
     id="defs6">
    <style
       id="style1">
      .name { font-family: Arial, sans-serif; font-size: 16px; font-weight: 600; fill: #94a3b8; text-anchor: middle; }
      .hop-label { font-family: Arial, sans-serif; font-size: 14px; font-weight: 500; fill: #94a3b8; text-anchor: middle; }
      .green-line { fill: none; stroke: #22c55e; stroke-width: 2; }
      .magenta-line { fill: none; stroke: #d946ef; stroke-width: 2; }
      .brown-line { fill: none; stroke: #b8860b; stroke-width: 2; }
    </style>
    <!-- Client icon -->
    <linearGradient
       id="client-grad"
       x1="7.8000002"
       x2="23.1"
       y1="10.4"
       y2="33.299999"
       gradientUnits="userSpaceOnUse">
      <stop
         offset="0"
         stop-color="#d5e5ff"
         id="stop1" />
      <stop
         offset="1"
         stop-color="#acf"
         id="stop2" />
    </linearGradient>
    <g
       id="client">
      <path
         fill="#999999"
         d="m 35.2,44.9 1,7.6 h -8.4 l 1.1,-7.6 z"
         id="path2" />
      <path
         fill="#808080"
         d="m 60,46 c 0,1.3 -1.1,2.4 -2.4,2.4 H 6.4 A 2.4,2.4 0 0 1 4,46 V 10 C 4,8.7 5.1,7.6 6.4,7.6 h 51.2 c 1.3,0 2.4,1 2.4,2.4 z m -37,6.2 h 18 a 2,2 45 0 1 2,2 v 0.2 a 2,2 135 0 1 -2,2 H 23 a 2,2 45 0 1 -2,-2 v -0.2 a 2,2 135 0 1 2,-2 z"
         id="path3" />
      <circle
         cx="32"
         cy="44.799999"
         r="1.3"
         fill="#cccccc"
         id="circle3" />
      <path
         fill="#87aade"
         d="m 8.1,12 v 29.3 h 48 V 12 Z"
         id="path4" />
      <path
         fill="url(#client-grad)"
         d="m 7.5,12.5 v 29 l 49,-29 z"
         transform="matrix(0.98,0,0,1.01,0.7,-0.6)"
         id="path5" />
    </g>
    <!-- Arrowheads -->
    <marker
       id="arrowhead-green"
       markerWidth="10"
       markerHeight="7"
       refX="9"
       refY="3.5"
       orient="auto">
      <polygon
         points="10,3.5 0,7 0,0 "
         fill="#22c55e"
         id="polygon5" />
    </marker>
    <marker
       id="arrowhead-magenta"
       markerWidth="10"
       markerHeight="7"
       refX="9"
       refY="3.5"
       orient="auto">
      <polygon
         points="10,3.5 0,7 0,0 "
         fill="#d946ef"
         id="polygon6" />
    </marker>
  </defs>
  <!-- Alice -->
  <text
     x="19.121094"
     y="11.453125"
     class="name"
     id="text6">Alice</text>
  <g
     transform="matrix(0.45,0,0,0.45,5.1210937,16.453125)"
     id="g6">
    <use
       href="#client"
       id="use6" />
  </g>
  <!-- Vertical line from Alice down -->
  <line
     x1="19.121094"
     y1="46.453125"
     x2="19.121094"
     y2="66.453125"
     class="brown-line"
     id="line6" />
  <!-- Horizontal line connecting to B -->
  <line
     x1="19.121094"
     y1="66.453125"
     x2="90.121094"
     y2="66.453125"
     class="green-line"
     marker-end="url(#arrowhead-green)"
     id="line7" />
  <!-- B -->
  <g
     transform="matrix(0.45,0,0,0.45,90.121094,41.453125)"
     id="g7">
    <use
       href="#client"
       id="use7" />
  </g>
  <text
     x="104.12109"
     y="91.453125"
     class="hop-label"
     id="text7">B</text>
  <!-- Arrow B to C -->
  <line
     x1="134.12109"
     y1="66.453125"
     x2="190.12109"
     y2="66.453125"
     class="green-line"
     marker-end="url(#arrowhead-green)"
     id="line8" />
  <!-- C -->
  <g
     transform="matrix(0.45,0,0,0.45,190.12109,41.453125)"
     id="g8">
    <use
       href="#client"
       id="use8" />
  </g>
  <text
     x="204.12109"
     y="91.453125"
     class="hop-label"
     id="text8">C</text>
  <!-- Arrow C to D -->
  <line
     x1="234.12109"
     y1="66.453125"
     x2="290.12109"
     y2="66.453125"
     class="green-line"
     marker-end="url(#arrowhead-green)"
     id="line9" />
  <!-- D -->
  <g
     transform="matrix(0.45,0,0,0.45,290.12109,41.453125)"
     id="g9">
    <use
       href="#client"
       id="use9" />
  </g>
  <text
     x="304.12109"
     y="91.453125"
     class="hop-label"
     id="text9">D</text>
  <!-- Arrow D to E -->
  <line
     x1="334.12109"
     y1="66.453125"
     x2="390.12109"
     y2="66.453125"
     class="magenta-line"
     marker-end="url(#arrowhead-magenta)"
     id="line10" />
  <!-- E -->
  <g
     transform="matrix(0.45,0,0,0.45,390.12109,41.453125)"
     id="g10">
    <use
       href="#client"
       id="use10" />
  </g>
  <text
     x="404.12109"
     y="91.453125"
     class="hop-label"
     id="text10">E</text>
  <!-- Arrow E to F -->
  <line
     x1="434.12109"
     y1="66.453125"
     x2="490.12109"
     y2="66.453125"
     class="magenta-line"
     marker-end="url(#arrowhead-magenta)"
     id="line11" />
  <!-- F -->
  <g
     transform="matrix(0.45,0,0,0.45,490.12109,41.453125)"
     id="g11">
    <use
       href="#client"
       id="use11" />
  </g>
  <text
     x="504.12109"
     y="91.453125"
     class="hop-label"
     id="text11">F</text>
  <!-- Arrow F to Bob connection -->
  <line
     x1="534.12109"
     y1="66.453125"
     x2="589.12109"
     y2="66.453125"
     class="magenta-line"
     marker-end="url(#arrowhead-magenta)"
     id="line12" />
  <!-- Vertical line up to Bob -->
  <line
     x1="589.12109"
     y1="66.453125"
     x2="589.12109"
     y2="46.453125"
     class="brown-line"
     id="line13" />
  <!-- Bob -->
  <text
     x="589.12109"
     y="11.453125"
     class="name"
     id="text13">Bob</text>
  <g
     transform="matrix(0.45,0,0,0.45,575.12109,16.453125)"
     id="g13">
    <use
       href="#client"
       id="use13" />
  </g>
  <text
     x="19.121094"
     y="11.453125"
     class="name"
     id="text14">Alice</text>
  <g
     transform="matrix(0.45,0,0,0.45,5.1210937,16.453125)"
     id="g14">
    <use
       href="#client"
       id="use14" />
  </g>
  <line
     x1="19.121094"
     y1="46.453125"
     x2="19.121094"
     y2="66.453125"
     class="brown-line"
     id="line14" />
  <line
     x1="19.121094"
     y1="66.453125"
     x2="90.121094"
     y2="66.453125"
     class="green-line"
     marker-end="url(#arrowhead-green)"
     id="line15" />
  <g
     transform="matrix(0.45,0,0,0.45,90.121094,41.453125)"
     id="g15">
    <use
       href="#client"
       id="use15" />
  </g>
  <text
     x="104.12109"
     y="91.453125"
     class="hop-label"
     id="text15">B</text>
  <line
     x1="134.12109"
     y1="66.453125"
     x2="190.12109"
     y2="66.453125"
     class="green-line"
     marker-end="url(#arrowhead-green)"
     id="line16" />
  <g
     transform="matrix(0.45,0,0,0.45,190.12109,41.453125)"
     id="g16">
    <use
       href="#client"
       id="use16" />
  </g>
  <text
     x="204.12109"
     y="91.453125"
     class="hop-label"
     id="text16">C</text>
  <line
     x1="234.12109"
     y1="66.453125"
     x2="290.12109"
     y2="66.453125"
     class="green-line"
     marker-end="url(#arrowhead-green)"
     id="line17" />
  <g
     transform="matrix(0.45,0,0,0.45,290.12109,41.453125)"
     id="g17">
    <use
       href="#client"
       id="use17" />
  </g>
  <text
     x="304.12109"
     y="91.453125"
     class="hop-label"
     id="text17">D</text>
  <line
     x1="334.12109"
     y1="66.453125"
     x2="390.12109"
     y2="66.453125"
     class="magenta-line"
     marker-end="url(#arrowhead-magenta)"
     id="line18" />
  <g
     transform="matrix(0.45,0,0,0.45,390.12109,41.453125)"
     id="g18">
    <use
       href="#client"
       id="use18" />
  </g>
  <text
     x="404.12109"
     y="91.453125"
     class="hop-label"
     id="text18">E</text>
  <line
     x1="434.12109"
     y1="66.453125"
     x2="490.12109"
     y2="66.453125"
     class="magenta-line"
     marker-end="url(#arrowhead-magenta)"
     id="line19" />
  <g
     transform="matrix(0.45,0,0,0.45,490.12109,41.453125)"
     id="g19">
    <use
       href="#client"
       id="use19" />
  </g>
  <text
     x="504.12109"
     y="91.453125"
     class="hop-label"
     id="text19">F</text>
  <line
     x1="534.12109"
     y1="66.453125"
     x2="589.12109"
     y2="66.453125"
     class="magenta-line"
     marker-end="url(#arrowhead-magenta)"
     id="line20" />
  <line
     x1="589.12109"
     y1="66.453125"
     x2="589.12109"
     y2="46.453125"
     class="brown-line"
     id="line21" />
  <text
     x="589.12109"
     y="11.453125"
     class="name"
     id="text21">Bob</text>
  <g
     transform="matrix(0.45,0,0,0.45,575.12109,16.453125)"
     id="g21">
    <use
       href="#client"
       id="use21" />
  </g>
</svg>
