<svg xmlns="http://www.w3.org/2000/svg" id="svg41" viewBox="0 0 800 240">
  <defs id="defs21">
    <linearGradient id="client-grad" x1="7.8" x2="23.1" y1="10.4" y2="33.3" gradientUnits="userSpaceOnUse">
      <stop id="stop1" offset="0" stop-color="#d5e5ff"/>
      <stop id="stop2" offset="1" stop-color="#acf"/>
    </linearGradient>
    <linearGradient id="server-grad-b" x1="27.2" x2="27.2" y1="6.3" y2="32" gradientUnits="userSpaceOnUse">
      <stop id="stop3" offset="0" stop-color="#b7b7c8"/>
      <stop id="stop4" offset="1" stop-color="#373748"/>
    </linearGradient>
    <linearGradient id="server-grad-a" x1="32.8" x2="32.8" y1="32" y2="57.6" gradientUnits="userSpaceOnUse">
      <stop id="stop5" offset="0" stop-color="#b7bec8"/>
      <stop id="stop6" offset="1" stop-color="#373e48"/>
    </linearGradient>
    <g id="client">
      <path id="path6" fill="#999" d="m35.2 44.9 1 7.6h-8.4l1.1-7.6z"/>
      <path id="path7" fill="gray" d="M60 46c0 1.3-1.1 2.4-2.4 2.4H6.4A2.4 2.4 0 0 1 4 46V10c0-1.3 1.1-2.4 2.4-2.4h51.2c1.3 0 2.4 1 2.4 2.4zm-37 6.2h18a2 2 45 0 1 2 2v.2a2 2 135 0 1-2 2H23a2 2 45 0 1-2-2v-.2a2 2 135 0 1 2-2"/>
      <circle id="circle7" cx="32" cy="44.8" r="1.3" fill="#ccc"/>
      <path id="path8" fill="#87aade" d="M8.1 12v29.3h48V12Z"/>
      <path id="path9" fill="url(#client-grad)" d="M7.5 12.5v29l49-29z" transform="matrix(.98 0 0 1.01 .7 -.6)"/>
    </g>
    <g id="server">
      <path id="path10" fill="url(#server-grad-a)" d="M56.8 58.3H7.2c-2 0-3.6-1.6-3.6-3.6V35.6c0-2 1.6-3.6 3.6-3.6h49.6c2 0 3.6 1.6 3.6 3.6v19.1c0 2-1.6 3.6-3.6 3.6"/>
      <path id="path11" fill="url(#server-grad-b)" d="M56.8 32H7.2c-2 0-3.6-1.6-3.6-3.6V9.3c0-2 1.6-3.6 3.6-3.6h49.6c2 0 3.6 1.6 3.6 3.6v19.1c0 2-1.6 3.6-3.6 3.6"/>
      <g id="g20" fill="#ccc">
        <use id="use11" href="#server-dot"/>
        <use id="use12" x="-7.6" href="#server-dot"/>
        <use id="use13" x="3.8" y="5.7" href="#server-dot"/>
        <use id="use14" x="-3.8" y="5.7" href="#server-dot"/>
        <use id="use15" x="-15.1" href="#server-dot"/>
        <path id="path15" d="M39 47.9c0 1.1-.7 1.9-1.9 1.9-1 0-1.9-.8-1.9-1.9s.8-1.9 2-1.9 1.8.8 1.8 1.9"/>
        <use id="use16" y="-26.3" href="#server-dot"/>
        <use id="use17" x="-7.6" y="-26.3" href="#server-dot"/>
        <use id="use18" x="3.8" y="-20.6" href="#server-dot"/>
        <use id="use19" x="-3.8" y="-20.6" href="#server-dot"/>
        <use id="use20" x="-15.1" y="-26.3" href="#server-dot"/>
        <path id="path20" d="M39 21.6c0 1.1-.7 1.9-1.9 1.9-1 0-1.9-.8-1.9-1.9s.8-1.9 2-1.9 1.8.8 1.8 1.9"/>
      </g>
      <g id="g21" fill="#0f0">
        <circle id="circle20" cx="13.9" cy="45.2" r="3.3"/>
        <circle id="circle21" cx="13.9" cy="18.8" r="3.3"/>
      </g>
    </g>
    <marker id="arrowhead" markerHeight="7" markerWidth="10" orient="auto" refX="9" refY="3.5">
      <path id="path21" fill="#94a3b8" d="m0 0 10 3.5L0 7Z"/>
    </marker>
    <style id="style21">
      .label,.name,.title{font-family:Arial,sans-serif;fill:#94a3b8;text-anchor:middle}.title{font-size:24px;font-weight:700}.label{font-size:16px;font-weight:500}.name{font-size:17px;font-weight:600}.arrow{fill:none;stroke:#94a3b8;stroke-width:2}
    </style>
    <path id="server-dot" d="M50.4 42.2c0 1.2-.8 2-1.9 2s-1.9-.8-1.9-2 .8-1.9 1.9-1.9 1.9.8 1.9 2"/>
  </defs>
  <g id="g47" transform="translate(13 15)">
    <path id="path22" fill="none" stroke="#94a3b8" stroke-linecap="round" stroke-linejoin="round" stroke-width="3" d="M8.45898 48.03516q0-15 20-15h120q20 0 20-10 0 10 20 10h120q20 0 20 15m120 0q0-15 20-15h120q20 0 20-10 0 10 20 10h120q20 0 20 15"/>
    <text id="text22" x="168.45898" y="18.03516" class="title">Outbound tunnel</text>
    <text id="text23" x="608.45898" y="18.03516" class="title">Inbound tunnel</text>
    <g id="g46" transform="translate(2)">
      <use id="use23" href="#client" transform="matrix(.9 0 0 .9 7.52227 91.89516)"/>
      <text id="text24" x="36.40112" y="168.03516" class="name">Alice</text>
      <text id="text25" x="36.45898" y="188.03516" class="label">Outbound</text>
      <text id="text26" x="35.93555" y="205.82422" class="label">Gateway</text>
    </g>
    <g id="g45" transform="translate(4.29296)">
      <use id="use26" href="#client" transform="matrix(.9 0 0 .9 137.96561 91.89516)"/>
      <text id="text27" x="167.19336" y="188.03516" class="label">Outbound</text>
      <text id="text28" x="166.45898" y="206.03516" class="label">Participant</text>
    </g>
    <g id="g44" transform="translate(8.05468)">
      <use id="use28" href="#client" transform="matrix(.9 0 0 .9 268.40895 91.89516)"/>
      <text id="text29" x="296.45898" y="188.03516" class="label">Outbound</text>
      <text id="text30" x="295.72461" y="206.03516" class="label">Endpoint</text>
    </g>
    <g id="g43" transform="translate(2.6289)">
      <use id="use30" href="#client" transform="matrix(.9 0 0 .9 446.85229 91.89516)"/>
      <text id="text31" x="476.62305" y="188.03516" class="label">Inbound</text>
      <text id="text32" x="476.45898" y="205.82422" class="label">Gateway</text>
    </g>
    <g id="g42" transform="translate(2.35156)">
      <use id="use32" href="#client" transform="matrix(.9 0 0 .9 577.29564 91.89516)"/>
      <text id="text33" x="606.83398" y="188.03516" class="label">Inbound</text>
      <text id="text34" x="606.45898" y="206.03516" class="label">Participant</text>
    </g>
    <g id="g41" transform="translate(2)">
      <use id="use34" href="#server" transform="matrix(.8 0 0 .8 711.45664 95.09516)"/>
      <text id="text35" x="736.83667" y="168.03516" class="name">Bob</text>
      <text id="text36" x="736.83398" y="188.03516" class="label">Inbound</text>
      <text id="text37" x="736.45898" y="206.03516" class="label">Endpoint</text>
    </g>
    <path id="path37" marker-end="url(#arrowhead)" d="M69.41797 120.69516h67.99999" class="arrow"/>
    <path id="path38" marker-end="url(#arrowhead)" d="M205.28125 120.69516h68" class="arrow"/>
    <path id="path39" fill="none" stroke="#94a3b8" stroke-dasharray="6 4" stroke-width="2" marker-end="url(#arrowhead)" d="M335.47265 120.69516h116"/>
    <path id="path40" marker-end="url(#arrowhead)" d="M507.47656 120.69516h68" class="arrow"/>
    <path id="path41" marker-end="url(#arrowhead)" d="M643.33984 120.69516h68" class="arrow"/>
  </g>
</svg>
