<?xml version="1.0" encoding="UTF-8" standalone="no"?>
<svg
   id="svg41"
   viewBox="0 0 765.86719 208.65234"
   version="1.1"
   sodipodi:docname="tunnels.svg"
   width="765.86719"
   height="208.65234"
   inkscape:version="1.4.3 (0d15f750, 2025-12-25)"
   xmlns:inkscape="http://www.inkscape.org/namespaces/inkscape"
   xmlns:sodipodi="http://sodipodi.sourceforge.net/DTD/sodipodi-0.dtd"
   xmlns="http://www.w3.org/2000/svg"
   xmlns:svg="http://www.w3.org/2000/svg">
  <sodipodi:namedview
     id="namedview1"
     pagecolor="#ffffff"
     bordercolor="#000000"
     borderopacity="0.25"
     inkscape:showpageshadow="2"
     inkscape:pageopacity="0.0"
     inkscape:pagecheckerboard="0"
     inkscape:deskcolor="#d1d1d1"
     inkscape:zoom="1.1"
     inkscape:cx="383.18182"
     inkscape:cy="104.09091"
     inkscape:window-width="1024"
     inkscape:window-height="1186"
     inkscape:window-x="0"
     inkscape:window-y="30"
     inkscape:window-maximized="0"
     inkscape:current-layer="svg41" />
  <defs
     id="defs21">
    <linearGradient
       id="client-grad"
       x1="7.8000002"
       x2="23.1"
       y1="10.4"
       y2="33.299999"
       gradientUnits="userSpaceOnUse">
      <stop
         id="stop1"
         offset="0"
         stop-color="#d5e5ff" />
      <stop
         id="stop2"
         offset="1"
         stop-color="#acf" />
    </linearGradient>
    <linearGradient
       id="server-grad-b"
       x1="27.200001"
       x2="27.200001"
       y1="6.3000002"
       y2="32"
       gradientUnits="userSpaceOnUse">
      <stop
         id="stop3"
         offset="0"
         stop-color="#b7b7c8" />
      <stop
         id="stop4"
         offset="1"
         stop-color="#373748" />
    </linearGradient>
    <linearGradient
       id="server-grad-a"
       x1="32.799999"
       x2="32.799999"
       y1="32"
       y2="57.599998"
       gradientUnits="userSpaceOnUse">
      <stop
         id="stop5"
         offset="0"
         stop-color="#b7bec8" />
      <stop
         id="stop6"
         offset="1"
         stop-color="#373e48" />
    </linearGradient>
    <g
       id="client">
      <path
         id="path6"
         fill="#999999"
         d="m 35.2,44.9 1,7.6 h -8.4 l 1.1,-7.6 z" />
      <path
         id="path7"
         fill="#808080"
         d="m 60,46 c 0,1.3 -1.1,2.4 -2.4,2.4 H 6.4 A 2.4,2.4 0 0 1 4,46 V 10 C 4,8.7 5.1,7.6 6.4,7.6 h 51.2 c 1.3,0 2.4,1 2.4,2.4 z m -37,6.2 h 18 a 2,2 45 0 1 2,2 v 0.2 a 2,2 135 0 1 -2,2 H 23 a 2,2 45 0 1 -2,-2 v -0.2 a 2,2 135 0 1 2,-2" />
      <circle
         id="circle7"
         cx="32"
         cy="44.799999"
         r="1.3"
         fill="#cccccc" />
      <path
         id="path8"
         fill="#87aade"
         d="m 8.1,12 v 29.3 h 48 V 12 Z" />
      <path
         id="path9"
         fill="url(#client-grad)"
         d="m 7.5,12.5 v 29 l 49,-29 z"
         transform="matrix(0.98,0,0,1.01,0.7,-0.6)" />
    </g>
    <g
       id="server">
      <path
         id="path10"
         fill="url(#server-grad-a)"
         d="M 56.8,58.3 H 7.2 c -2,0 -3.6,-1.6 -3.6,-3.6 V 35.6 c 0,-2 1.6,-3.6 3.6,-3.6 h 49.6 c 2,0 3.6,1.6 3.6,3.6 v 19.1 c 0,2 -1.6,3.6 -3.6,3.6" />
      <path
         id="path11"
         fill="url(#server-grad-b)"
         d="M 56.8,32 H 7.2 C 5.2,32 3.6,30.4 3.6,28.4 V 9.3 c 0,-2 1.6,-3.6 3.6,-3.6 h 49.6 c 2,0 3.6,1.6 3.6,3.6 v 19.1 c 0,2 -1.6,3.6 -3.6,3.6" />
      <g
         id="g20"
         fill="#cccccc">
        <use
           id="use11"
           href="#server-dot" />
        <use
           id="use12"
           x="-7.5999999"
           href="#server-dot" />
        <use
           id="use13"
           x="3.8"
           y="5.6999998"
           href="#server-dot" />
        <use
           id="use14"
           x="-3.8"
           y="5.6999998"
           href="#server-dot" />
        <use
           id="use15"
           x="-15.1"
           href="#server-dot" />
        <path
           id="path15"
           d="m 39,47.9 c 0,1.1 -0.7,1.9 -1.9,1.9 -1,0 -1.9,-0.8 -1.9,-1.9 0,-1.1 0.8,-1.9 2,-1.9 1.2,0 1.8,0.8 1.8,1.9" />
        <use
           id="use16"
           y="-26.299999"
           href="#server-dot" />
        <use
           id="use17"
           x="-7.5999999"
           y="-26.299999"
           href="#server-dot" />
        <use
           id="use18"
           x="3.8"
           y="-20.6"
           href="#server-dot" />
        <use
           id="use19"
           x="-3.8"
           y="-20.6"
           href="#server-dot" />
        <use
           id="use20"
           x="-15.1"
           y="-26.299999"
           href="#server-dot" />
        <path
           id="path20"
           d="m 39,21.6 c 0,1.1 -0.7,1.9 -1.9,1.9 -1,0 -1.9,-0.8 -1.9,-1.9 0,-1.1 0.8,-1.9 2,-1.9 1.2,0 1.8,0.8 1.8,1.9" />
      </g>
      <g
         id="g21"
         fill="#00ff00">
        <circle
           id="circle20"
           cx="13.9"
           cy="45.200001"
           r="3.3" />
        <circle
           id="circle21"
           cx="13.9"
           cy="18.799999"
           r="3.3" />
      </g>
    </g>
    <marker
       id="arrowhead"
       markerHeight="7"
       markerWidth="10"
       orient="auto"
       refX="9"
       refY="3.5">
      <path
         id="path21"
         fill="#94a3b8"
         d="M 0,0 10,3.5 0,7 Z" />
    </marker>
    <style
       id="style21">
      .label,.name,.title{font-family:Arial,sans-serif;fill:#94a3b8;text-anchor:middle}.title{font-size:24px;font-weight:700}.label{font-size:16px;font-weight:500}.name{font-size:17px;font-weight:600}.arrow{fill:none;stroke:#94a3b8;stroke-width:2}
    </style>
    <path
       id="server-dot"
       d="m 50.4,42.2 c 0,1.2 -0.8,2 -1.9,2 -1.1,0 -1.9,-0.8 -1.9,-2 0,-1.2 0.8,-1.9 1.9,-1.9 1.1,0 1.9,0.8 1.9,2" />
  </defs>
  <g
     id="g47"
     transform="translate(-4.0917931,-0.56250381)">
    <path
       id="path22"
       fill="none"
       stroke="#94a3b8"
       stroke-linecap="round"
       stroke-linejoin="round"
       stroke-width="3"
       d="m 8.45898,48.03516 q 0,-15 20,-15 h 120 q 20,0 20,-10 0,10 20,10 h 120 q 20,0 20,15 m 120,0 q 0,-15 20,-15 h 120 q 20,0 20,-10 0,10 20,10 h 120 q 20,0 20,15" />
    <text
       id="text22"
       x="168.45898"
       y="18.03516"
       class="title">Outbound tunnel</text>
    <text
       id="text23"
       x="608.45898"
       y="18.03516"
       class="title">Inbound tunnel</text>
    <g
       id="g46"
       transform="translate(2)">
      <use
         id="use23"
         href="#client"
         transform="matrix(0.9,0,0,0.9,7.52227,91.89516)" />
      <text
         id="text24"
         x="36.401119"
         y="168.03516"
         class="name">Alice</text>
      <text
         id="text25"
         x="36.458981"
         y="188.03516"
         class="label">Outbound</text>
      <text
         id="text26"
         x="35.935551"
         y="205.82422"
         class="label">Gateway</text>
    </g>
    <g
       id="g45"
       transform="translate(4.29296)">
      <use
         id="use26"
         href="#client"
         transform="matrix(0.9,0,0,0.9,137.96561,91.89516)" />
      <text
         id="text27"
         x="167.19336"
         y="188.03516"
         class="label">Outbound</text>
      <text
         id="text28"
         x="166.45898"
         y="206.03516"
         class="label">Participant</text>
    </g>
    <g
       id="g44"
       transform="translate(8.05468)">
      <use
         id="use28"
         href="#client"
         transform="matrix(0.9,0,0,0.9,268.40895,91.89516)" />
      <text
         id="text29"
         x="296.45898"
         y="188.03516"
         class="label">Outbound</text>
      <text
         id="text30"
         x="295.72461"
         y="206.03516"
         class="label">Endpoint</text>
    </g>
    <g
       id="g43"
       transform="translate(2.6289)">
      <use
         id="use30"
         href="#client"
         transform="matrix(0.9,0,0,0.9,446.85229,91.89516)" />
      <text
         id="text31"
         x="476.62305"
         y="188.03516"
         class="label">Inbound</text>
      <text
         id="text32"
         x="476.45898"
         y="205.82422"
         class="label">Gateway</text>
    </g>
    <g
       id="g42"
       transform="translate(2.35156)">
      <use
         id="use32"
         href="#client"
         transform="matrix(0.9,0,0,0.9,577.29564,91.89516)" />
      <text
         id="text33"
         x="606.83398"
         y="188.03516"
         class="label">Inbound</text>
      <text
         id="text34"
         x="606.45898"
         y="206.03516"
         class="label">Participant</text>
    </g>
    <g
       id="g41"
       transform="translate(2)">
      <use
         id="use34"
         href="#server"
         transform="matrix(0.8,0,0,0.8,711.45664,95.09516)" />
      <text
         id="text35"
         x="736.83667"
         y="168.03516"
         class="name">Bob</text>
      <text
         id="text36"
         x="736.83398"
         y="188.03516"
         class="label">Inbound</text>
      <text
         id="text37"
         x="736.45898"
         y="206.03516"
         class="label">Endpoint</text>
    </g>
    <path
       id="path37"
       marker-end="url(#arrowhead)"
       d="m 69.41797,120.69516 h 67.99999"
       class="arrow" />
    <path
       id="path38"
       marker-end="url(#arrowhead)"
       d="m 205.28125,120.69516 h 68"
       class="arrow" />
    <path
       id="path39"
       fill="none"
       stroke="#94a3b8"
       stroke-dasharray="6, 4"
       stroke-width="2"
       marker-end="url(#arrowhead)"
       d="m 335.47265,120.69516 h 116" />
    <path
       id="path40"
       marker-end="url(#arrowhead)"
       d="m 507.47656,120.69516 h 68"
       class="arrow" />
    <path
       id="path41"
       marker-end="url(#arrowhead)"
       d="m 643.33984,120.69516 h 68"
       class="arrow" />
  </g>
  <g
     id="g52"
     transform="translate(-4.0917931,-0.56250381)">
    <path
       id="path1"
       fill="none"
       stroke="#94a3b8"
       stroke-linecap="round"
       stroke-linejoin="round"
       stroke-width="3"
       d="m 8.45898,48.03516 q 0,-15 20,-15 h 120 q 20,0 20,-10 0,10 20,10 h 120 q 20,0 20,15 m 120,0 q 0,-15 20,-15 h 120 q 20,0 20,-10 0,10 20,10 h 120 q 20,0 20,15" />
    <text
       id="text1"
       x="168.45898"
       y="18.03516"
       class="title">Outbound tunnel</text>
    <text
       id="text2"
       x="608.45898"
       y="18.03516"
       class="title">Inbound tunnel</text>
    <g
       id="g5"
       transform="translate(2)">
      <use
         id="use2"
         href="#client"
         transform="matrix(0.9,0,0,0.9,7.52227,91.89516)" />
      <text
         id="text3"
         x="36.401119"
         y="168.03516"
         class="name">Alice</text>
      <text
         id="text4"
         x="36.458981"
         y="188.03516"
         class="label">Outbound</text>
      <text
         id="text5"
         x="35.935551"
         y="205.82422"
         class="label">Gateway</text>
    </g>
    <g
       id="g7"
       transform="translate(4.29296)">
      <use
         id="use5"
         href="#client"
         transform="matrix(0.9,0,0,0.9,137.96561,91.89516)" />
      <text
         id="text6"
         x="167.19336"
         y="188.03516"
         class="label">Outbound</text>
      <text
         id="text7"
         x="166.45898"
         y="206.03516"
         class="label">Participant</text>
    </g>
    <g
       id="g9"
       transform="translate(8.05468)">
      <use
         id="use7"
         href="#client"
         transform="matrix(0.9,0,0,0.9,268.40895,91.89516)" />
      <text
         id="text8"
         x="296.45898"
         y="188.03516"
         class="label">Outbound</text>
      <text
         id="text9"
         x="295.72461"
         y="206.03516"
         class="label">Endpoint</text>
    </g>
    <g
       id="g11"
       transform="translate(2.6289)">
      <use
         id="use9"
         href="#client"
         transform="matrix(0.9,0,0,0.9,446.85229,91.89516)" />
      <text
         id="text10"
         x="476.62305"
         y="188.03516"
         class="label">Inbound</text>
      <text
         id="text11"
         x="476.45898"
         y="205.82422"
         class="label">Gateway</text>
    </g>
    <g
       id="g38"
       transform="translate(2.35156)">
      <use
         id="use21"
         href="#client"
         transform="matrix(0.9,0,0,0.9,577.29564,91.89516)" />
      <text
         id="text21"
         x="606.83398"
         y="188.03516"
         class="label">Inbound</text>
      <text
         id="text38"
         x="606.45898"
         y="206.03516"
         class="label">Participant</text>
    </g>
    <g
       id="g48"
       transform="translate(2)">
      <use
         id="use38"
         href="#server"
         transform="matrix(0.8,0,0,0.8,711.45664,95.09516)" />
      <text
         id="text39"
         x="736.83667"
         y="168.03516"
         class="name">Bob</text>
      <text
         id="text40"
         x="736.83398"
         y="188.03516"
         class="label">Inbound</text>
      <text
         id="text41"
         x="736.45898"
         y="206.03516"
         class="label">Endpoint</text>
    </g>
    <path
       id="path48"
       marker-end="url(#arrowhead)"
       d="m 69.41797,120.69516 h 67.99999"
       class="arrow" />
    <path
       id="path49"
       marker-end="url(#arrowhead)"
       d="m 205.28125,120.69516 h 68"
       class="arrow" />
    <path
       id="path50"
       fill="none"
       stroke="#94a3b8"
       stroke-dasharray="6, 4"
       stroke-width="2"
       marker-end="url(#arrowhead)"
       d="m 335.47265,120.69516 h 116" />
    <path
       id="path51"
       marker-end="url(#arrowhead)"
       d="m 507.47656,120.69516 h 68"
       class="arrow" />
    <path
       id="path52"
       marker-end="url(#arrowhead)"
       d="m 643.33984,120.69516 h 68"
       class="arrow" />
  </g>
</svg>
