<svg xmlns="http://www.w3.org/2000/svg" viewBox="0 0 650 290">
  <style>
    .box { fill: none; stroke: #94a3b8; stroke-width: 2; }
    .box-size { fill: rgba(96, 165, 250, 0.15); stroke: #60a5fa; stroke-width: 2; }
    .box-string { fill: rgba(52, 211, 153, 0.15); stroke: #34d399; stroke-width: 2; }
    .box-sep { fill: rgba(251, 191, 36, 0.15); stroke: #fbbf24; stroke-width: 2; }
    .label { font-family: Arial, sans-serif; font-size: 13px; font-weight: 600; fill: #94a3b8; }
    .label-size { fill: #60a5fa; }
    .label-string { fill: #34d399; }
    .label-sep { fill: #fbbf24; }
    .desc { font-family: Arial, sans-serif; font-size: 11px; fill: #94a3b8; }
    .bracket { stroke: #94a3b8; stroke-width: 1.5; fill: none; }
    .field-name { font-family: monospace; font-size: 12px; font-weight: 600; fill: #94a3b8; }
    .field-desc { font-family: Arial, sans-serif; font-size: 11px; fill: #64748b; }
  </style>

  <!-- Row of boxes -->
  <rect x="20" y="30" width="70" height="40" class="box-size" rx="4"/>
  <text x="55" y="54" text-anchor="middle" class="label label-size">size</text>
  <text x="55" y="85" text-anchor="middle" class="desc">2 bytes</text>

  <rect x="95" y="30" width="160" height="40" class="box-string" rx="4"/>
  <text x="175" y="54" text-anchor="middle" class="label label-string">key_string</text>
  <text x="175" y="85" text-anchor="middle" class="desc">len + UTF-8</text>

  <rect x="260" y="30" width="35" height="40" class="box-sep" rx="4"/>
  <text x="277" y="54" text-anchor="middle" class="label label-sep">=</text>
  <text x="277" y="85" text-anchor="middle" class="desc">1 byte</text>

  <rect x="300" y="30" width="160" height="40" class="box-string" rx="4"/>
  <text x="380" y="54" text-anchor="middle" class="label label-string">val_string</text>
  <text x="380" y="85" text-anchor="middle" class="desc">len + UTF-8</text>

  <rect x="465" y="30" width="35" height="40" class="box-sep" rx="4"/>
  <text x="482" y="54" text-anchor="middle" class="label label-sep">;</text>
  <text x="482" y="85" text-anchor="middle" class="desc">1 byte</text>

  <text x="520" y="54" class="label">...</text>

  <!-- Bracket showing repeating section -->
  <path d="M 95 100 L 95 108 L 500 108 L 500 100" class="bracket"/>
  <text x="297" y="122" text-anchor="middle" class="desc">repeats for each key=value; pair</text>

  <!-- Field descriptions -->
  <g transform="translate(20, 145)">
    <rect x="-5" y="-12" width="90" height="20" class="box-size" rx="3"/>
    <text x="40" y="3" text-anchor="middle" class="field-name label-size">size</text>
    <text x="100" y="3" class="field-desc">Total number of bytes that follow (Integer, 2 bytes)</text>

    <rect x="-5" y="18" width="90" height="20" class="box-string" rx="3"/>
    <text x="40" y="33" text-anchor="middle" class="field-name label-string">key_string</text>
    <text x="100" y="33" class="field-desc">1-byte length prefix + UTF-8 encoded key name</text>

    <rect x="-5" y="48" width="90" height="20" class="box-sep" rx="3"/>
    <text x="40" y="63" text-anchor="middle" class="field-name label-sep">=</text>
    <text x="100" y="63" class="field-desc">Literal '=' separator byte (0x3D)</text>

    <rect x="-5" y="78" width="90" height="20" class="box-string" rx="3"/>
    <text x="40" y="93" text-anchor="middle" class="field-name label-string">val_string</text>
    <text x="100" y="93" class="field-desc">1-byte length prefix + UTF-8 encoded value</text>

    <rect x="-5" y="108" width="90" height="20" class="box-sep" rx="3"/>
    <text x="40" y="123" text-anchor="middle" class="field-name label-sep">;</text>
    <text x="100" y="123" class="field-desc">Literal ';' terminator byte (0x3B)</text>
  </g>
</svg>
